<svg xmlns="http://www.w3.org/2000/svg" xmlns:xlink="http://www.w3.org/1999/xlink" width="80" zoomAndPan="magnify" viewBox="0 0 60 67.92" height="80" preserveAspectRatio="xMidYMid meet" version="1.2"><defs><clipPath id="f3ab27279e"><path d="M 11.273438 18 L 48.726562 18 L 48.726562 31 L 11.273438 31 Z M 11.273438 18 "/></clipPath></defs><g id="cdbf8c95a5"><path style=" stroke:none;fill-rule:nonzero;fill:#ffa726;fill-opacity:1;" d="M 24.050781 3.609375 C 23.707031 2.261719 22.878906 1.183594 21.648438 0.566406 C 20.480469 -0.0195312 19.121094 -0.0507812 17.890625 0.296875 C 16.640625 0.65625 15.609375 1.511719 14.996094 2.671875 C 14.378906 3.847656 14.367188 5.265625 14.71875 6.523438 C 15.074219 7.789062 15.9375 8.871094 17.085938 9.46875 C 18.128906 10.015625 19.277344 9.949219 20.683594 9.585938 C 23.746094 8.792969 24.699219 6.136719 24.050781 3.609375 Z M 24.050781 3.609375 "/><path style=" stroke:none;fill-rule:nonzero;fill:#ffa726;fill-opacity:1;" d="M 29.492188 32.464844 C 28.839844 31.257812 28.140625 30.304688 27.933594 29.285156 C 27.730469 26.921875 27.410156 24.5625 27.121094 22.203125 C 26.90625 20.449219 26.636719 18.355469 26.464844 16.40625 C 29.734375 18.707031 32.410156 19.078125 33.933594 19.425781 C 35.464844 19.777344 38.101562 19.585938 39.613281 19.085938 C 41.554688 18.445312 40.507812 17.316406 39.066406 17.390625 C 35.941406 17.554688 32.332031 16.667969 29.808594 14.707031 C 28.792969 13.917969 27.652344 12.976562 26.542969 12.339844 C 23.765625 10.746094 16.242188 9.710938 15.160156 13.941406 C 14.882812 15.023438 15.140625 16.167969 15.511719 17.21875 C 16.082031 18.832031 16.621094 20.28125 16.84375 21.976562 C 16.945312 22.742188 17.042969 23.507812 17.144531 24.273438 C 17.332031 25.730469 17.523438 27.183594 17.710938 28.636719 C 18.195312 32.355469 20.683594 39.84375 19.585938 44.558594 C 19.058594 46.835938 17.953125 49.503906 16.628906 51.664062 C 15.699219 53.183594 14.328125 54.335938 14.371094 56.199219 C 14.394531 57.160156 14.78125 57.8125 15.730469 57.664062 C 16.269531 57.582031 18.71875 54.386719 20.160156 52.226562 C 22.246094 49.109375 23.554688 46.753906 24.414062 40.191406 C 24.730469 37.777344 22.917969 33.011719 25.585938 35.695312 C 27.214844 37.335938 30.371094 42.042969 31.082031 44.226562 C 32.296875 47.960938 31.820312 51.542969 31.558594 55.308594 C 31.515625 55.96875 31.378906 56.765625 31.851562 57.234375 C 34.496094 59.863281 35.011719 52.171875 35.128906 50.871094 C 35.386719 48.136719 35.609375 44.644531 34.441406 41.300781 C 33.519531 38.65625 30.539062 34.410156 29.492188 32.464844 Z M 29.492188 32.464844 "/><g clip-rule="nonzero" clip-path="url(#f3ab27279e)"><path style=" stroke:none;fill-rule:nonzero;fill:#212529;fill-opacity:1;" d="M 47.367188 18.078125 C 41.886719 18.074219 40.808594 18.066406 35.328125 18.0625 C 34.199219 18.0625 28.046875 18.605469 24.960938 19.601562 C 23.214844 20.164062 21.550781 20.984375 20.082031 22.085938 C 18.71875 23.101562 17.609375 24.328125 16.457031 25.566406 C 15.347656 26.761719 14.148438 27.957031 12.519531 28.363281 C 11.269531 28.675781 11.800781 30.601562 13.050781 30.292969 C 16.210938 29.503906 17.941406 26.59375 20.214844 24.539062 C 22.835938 22.175781 26.226562 21.03125 29.691406 20.652344 C 31.75 20.429688 34.34375 20.140625 36.683594 20.0625 C 41.710938 20.066406 42.339844 20.074219 47.367188 20.078125 C 48.652344 20.082031 48.652344 18.082031 47.367188 18.078125 Z M 47.367188 18.078125 "/></g><path style=" stroke:none;fill-rule:nonzero;fill:#ffa726;fill-opacity:1;" d="M 23.007812 21.992188 C 24.25 22.101562 25.457031 21.976562 26.699219 21.941406 C 27.871094 21.90625 31.125 21.578125 32.257812 21.199219 C 34.375 20.492188 33.230469 19.402344 31.652344 19.316406 C 30.839844 19.269531 28.015625 19.429688 27.199219 19.480469 C 26.382812 19.53125 25.5625 19.519531 24.746094 19.445312 C 21.828125 19.171875 19.550781 17.199219 18.144531 14.746094 C 17.84375 14.214844 17.523438 13.667969 17.011719 13.332031 C 16.503906 12.996094 15.746094 12.953125 15.332031 13.398438 C 15.089844 13.664062 15.007812 14.039062 14.96875 14.394531 C 14.667969 16.988281 16.515625 19.03125 18.507812 20.453125 C 19.722656 21.316406 21.1875 21.777344 22.664062 21.957031 C 22.78125 21.972656 22.894531 21.984375 23.007812 21.992188 Z M 23.007812 21.992188 "/><path style=" stroke:none;fill-rule:nonzero;fill:#ffffff;fill-opacity:1;" d="M 15.375 13.335938 C 15.738281 13.066406 16.519531 13.246094 16.902344 13.5 C 17.382812 13.816406 17.695312 14.363281 17.972656 14.84375 C 19.574219 17.644531 21.882812 19.199219 24.574219 19.453125 C 25.292969 19.515625 26.070312 19.53125 26.792969 19.5 C 26.785156 19.46875 26.761719 19.21875 26.753906 19.140625 C 26.066406 19.167969 25.296875 19.117188 24.609375 19.054688 C 22.054688 18.8125 19.855469 17.332031 18.320312 14.644531 C 18.019531 14.125 17.683594 13.535156 17.121094 13.164062 C 16.691406 12.882812 15.996094 12.867188 15.507812 13.070312 C 15.433594 13.164062 15.375 13.335938 15.375 13.335938 Z M 15.375 13.335938 "/><path style=" stroke:none;fill-rule:nonzero;fill:#ffffff;fill-opacity:1;" d="M 27.09375 21.914062 C 27.027344 21.917969 24.394531 22.058594 23.027344 21.792969 C 22.914062 21.773438 22.800781 21.773438 22.691406 21.757812 C 21.085938 21.5625 19.71875 21.070312 18.625 20.289062 C 17.328125 19.363281 16.144531 18.355469 15.570312 17.347656 C 15.671875 17.753906 15.851562 18.210938 15.851562 18.210938 C 16.453125 19.027344 17.332031 19.855469 18.394531 20.613281 C 19.542969 21.433594 20.972656 21.953125 22.640625 22.15625 C 22.757812 22.171875 22.875 22.183594 22.992188 22.191406 C 23.355469 22.222656 23.800781 22.308594 24.160156 22.308594 C 24.703125 22.308594 27.058594 22.316406 27.132812 22.3125 C 27.121094 22.179688 27.105469 22.046875 27.09375 21.914062 Z M 27.09375 21.914062 "/></g></svg>