<svg xmlns="http://www.w3.org/2000/svg" xmlns:xlink="http://www.w3.org/1999/xlink" width="80" zoomAndPan="magnify" viewBox="0 0 60 67.92" height="80" preserveAspectRatio="xMidYMid meet" version="1.2"><defs><clipPath id="84eef85335"><path d="M 11.273438 42 L 36 42 L 36 46.421875 L 11.273438 46.421875 Z M 11.273438 42 "/></clipPath><clipPath id="a3aeed2073"><path d="M 34 24 L 48.726562 24 L 48.726562 38 L 34 38 Z M 34 24 "/></clipPath><clipPath id="649bf04c07"><path d="M 42 13.460938 L 48 13.460938 L 48 20 L 42 20 Z M 42 13.460938 "/></clipPath><clipPath id="5a3efbe968"><path d="M 17 13.460938 L 43 13.460938 L 43 46.421875 L 17 46.421875 Z M 17 13.460938 "/></clipPath></defs><g id="9d1ff8924d"><g clip-rule="nonzero" clip-path="url(#84eef85335)"><path style=" stroke:none;fill-rule:nonzero;fill:#ffa726;fill-opacity:1;" d="M 35.09375 46.425781 L 15.691406 46.425781 C 13.492188 46.425781 11.675781 44.765625 11.421875 42.632812 L 32.917969 42.632812 C 33.066406 44.191406 33.890625 45.550781 35.09375 46.425781 Z M 35.09375 46.425781 "/></g><g clip-rule="nonzero" clip-path="url(#a3aeed2073)"><path style=" stroke:none;fill-rule:nonzero;fill:#ffa726;fill-opacity:1;" d="M 46.546875 32.257812 C 46.609375 32.035156 46.808594 31.882812 47.039062 31.882812 L 48.523438 31.882812 L 48.523438 29.898438 L 47.039062 29.898438 C 46.8125 29.898438 46.609375 29.746094 46.546875 29.527344 C 46.4375 29.140625 46.28125 28.777344 46.09375 28.449219 C 45.980469 28.25 46.015625 27.996094 46.179688 27.832031 L 47.230469 26.78125 L 45.824219 25.375 L 44.777344 26.425781 C 44.613281 26.589844 44.363281 26.625 44.167969 26.511719 C 43.816406 26.320312 43.453125 26.167969 43.078125 26.0625 C 42.859375 26 42.707031 25.796875 42.707031 25.566406 L 42.707031 24.085938 L 40.722656 24.085938 L 40.722656 25.566406 C 40.722656 25.796875 40.570312 26 40.351562 26.0625 C 39.976562 26.167969 39.613281 26.320312 39.261719 26.511719 C 39.066406 26.625 38.816406 26.589844 38.65625 26.425781 L 37.605469 25.375 L 36.199219 26.78125 L 37.253906 27.832031 C 37.414062 27.996094 37.449219 28.25 37.335938 28.449219 C 37.148438 28.777344 36.996094 29.140625 36.882812 29.527344 C 36.820312 29.746094 36.621094 29.898438 36.390625 29.898438 L 34.90625 29.898438 L 34.90625 31.882812 L 36.390625 31.882812 C 36.621094 31.882812 36.820312 32.035156 36.882812 32.257812 C 36.992188 32.632812 37.144531 32.996094 37.335938 33.339844 C 37.449219 33.539062 37.414062 33.792969 37.253906 33.953125 L 36.199219 35.003906 L 37.605469 36.40625 L 38.65625 35.355469 C 38.820312 35.191406 39.070312 35.160156 39.273438 35.273438 C 39.601562 35.460938 39.964844 35.609375 40.351562 35.722656 C 40.574219 35.785156 40.722656 35.988281 40.722656 36.214844 L 40.722656 37.699219 L 42.707031 37.699219 L 42.707031 36.214844 C 42.707031 35.988281 42.859375 35.785156 43.078125 35.722656 C 43.464844 35.609375 43.828125 35.460938 44.15625 35.273438 C 44.359375 35.15625 44.609375 35.191406 44.773438 35.355469 L 45.824219 36.40625 L 47.230469 35.003906 L 46.179688 33.953125 C 46.015625 33.792969 45.980469 33.539062 46.09375 33.339844 C 46.285156 32.996094 46.441406 32.632812 46.546875 32.257812 Z M 44.714844 31.34375 C 44.648438 31.820312 44.449219 32.296875 44.144531 32.703125 C 43.976562 32.941406 43.761719 33.148438 43.523438 33.328125 C 43.125 33.628906 42.644531 33.824219 42.144531 33.890625 C 42.019531 33.914062 41.867188 33.925781 41.714844 33.925781 L 41.703125 33.925781 C 41.554688 33.925781 41.40625 33.910156 41.265625 33.886719 C 40.785156 33.824219 40.304688 33.628906 39.902344 33.320312 C 39.667969 33.148438 39.453125 32.941406 39.28125 32.695312 C 38.980469 32.296875 38.78125 31.820312 38.714844 31.324219 C 38.691406 31.195312 38.683594 31.046875 38.683594 30.890625 C 38.683594 30.738281 38.691406 30.585938 38.714844 30.445312 C 38.78125 29.964844 38.980469 29.488281 39.289062 29.078125 C 39.460938 28.84375 39.671875 28.636719 39.90625 28.460938 C 40.304688 28.15625 40.785156 27.960938 41.289062 27.894531 C 41.539062 27.847656 41.871094 27.847656 42.164062 27.898438 C 42.644531 27.960938 43.125 28.15625 43.53125 28.464844 C 43.757812 28.632812 43.964844 28.839844 44.144531 29.078125 C 44.453125 29.488281 44.648438 29.96875 44.71875 30.460938 C 44.738281 30.585938 44.75 30.738281 44.75 30.890625 C 44.75 31.046875 44.738281 31.195312 44.714844 31.34375 Z M 44.714844 31.34375 "/></g><g clip-rule="nonzero" clip-path="url(#649bf04c07)"><path style=" stroke:none;fill-rule:nonzero;fill:#ffa726;fill-opacity:1;" d="M 47.734375 16.214844 L 47.734375 19.976562 L 42.226562 19.976562 L 42.226562 16.214844 C 42.226562 14.695312 43.460938 13.457031 44.984375 13.457031 C 46.5 13.457031 47.734375 14.695312 47.734375 16.214844 Z M 47.734375 16.214844 "/></g><g clip-rule="nonzero" clip-path="url(#5a3efbe968)"><path style=" stroke:none;fill-rule:nonzero;fill:#ffa726;fill-opacity:1;" d="M 20.757812 13.457031 C 18.816406 13.457031 17.234375 15.035156 17.234375 16.976562 L 17.234375 41.609375 L 33.402344 41.609375 C 33.6875 41.609375 33.914062 41.835938 33.914062 42.121094 C 33.914062 44.40625 35.703125 46.273438 37.953125 46.410156 C 39.769531 46.285156 41.203125 44.75 41.203125 42.90625 L 41.203125 38.726562 L 40.210938 38.726562 C 39.925781 38.726562 39.699219 38.496094 39.699219 38.210938 L 39.699219 36.589844 C 39.496094 36.515625 39.304688 36.4375 39.117188 36.34375 L 37.96875 37.496094 C 37.765625 37.695312 37.445312 37.695312 37.242188 37.496094 L 35.113281 35.367188 C 35.015625 35.273438 34.960938 35.140625 34.960938 35.003906 C 34.960938 34.867188 35.015625 34.738281 35.113281 34.644531 L 36.261719 33.492188 C 36.167969 33.300781 36.085938 33.109375 36.019531 32.910156 L 34.394531 32.910156 C 34.109375 32.910156 33.882812 32.679688 33.882812 32.394531 L 33.882812 29.386719 C 33.882812 29.105469 34.109375 28.875 34.394531 28.875 L 36.019531 28.875 C 36.089844 28.671875 36.167969 28.476562 36.261719 28.289062 L 35.113281 27.144531 C 35.015625 27.046875 34.960938 26.914062 34.960938 26.777344 C 34.960938 26.644531 35.015625 26.511719 35.113281 26.414062 L 37.242188 24.289062 C 37.445312 24.089844 37.765625 24.089844 37.96875 24.289062 L 39.113281 25.4375 C 39.304688 25.347656 39.5 25.265625 39.699219 25.195312 L 39.699219 23.570312 C 39.699219 23.289062 39.925781 23.058594 40.210938 23.058594 L 41.203125 23.058594 L 41.203125 16.214844 C 41.203125 15.125 41.667969 14.148438 42.402344 13.457031 Z M 31.035156 17.097656 C 31.035156 16.953125 31.144531 16.832031 31.277344 16.832031 L 32.941406 16.832031 C 33.074219 16.832031 33.183594 16.953125 33.183594 17.097656 C 33.183594 17.246094 33.074219 17.367188 32.941406 17.367188 L 31.863281 17.367188 C 31.726562 17.367188 31.617188 17.480469 31.617188 17.628906 L 31.617188 17.796875 C 31.617188 17.941406 31.726562 18.0625 31.863281 18.0625 L 32.832031 18.0625 C 32.964844 18.0625 33.074219 18.179688 33.074219 18.328125 C 33.074219 18.472656 32.964844 18.59375 32.832031 18.59375 L 31.863281 18.59375 C 31.726562 18.59375 31.617188 18.710938 31.617188 18.855469 L 31.617188 19.179688 C 31.617188 19.328125 31.726562 19.449219 31.863281 19.449219 L 32.996094 19.449219 C 33.128906 19.449219 33.238281 19.5625 33.238281 19.710938 C 33.238281 19.859375 33.128906 19.976562 32.996094 19.976562 L 31.277344 19.976562 C 31.144531 19.976562 31.035156 19.859375 31.035156 19.710938 Z M 28.785156 18.976562 L 28.863281 18.964844 C 28.988281 18.953125 29.101562 19.042969 29.128906 19.175781 C 29.140625 19.234375 29.160156 19.285156 29.175781 19.316406 C 29.242188 19.429688 29.335938 19.488281 29.46875 19.488281 C 29.597656 19.488281 29.691406 19.449219 29.746094 19.367188 C 29.800781 19.285156 29.828125 19.121094 29.828125 18.863281 L 29.828125 17.097656 C 29.828125 16.953125 29.9375 16.832031 30.070312 16.832031 L 30.164062 16.832031 C 30.296875 16.832031 30.410156 16.953125 30.410156 17.097656 L 30.410156 18.820312 C 30.410156 19.082031 30.386719 19.285156 30.347656 19.421875 C 30.289062 19.605469 30.183594 19.753906 30.039062 19.863281 C 29.886719 19.972656 29.691406 20.027344 29.445312 20.027344 C 29.160156 20.027344 28.941406 19.945312 28.785156 19.769531 C 28.675781 19.644531 28.605469 19.476562 28.570312 19.269531 C 28.550781 19.125 28.652344 18.992188 28.785156 18.976562 Z M 25.636719 17.617188 C 25.703125 17.457031 25.796875 17.3125 25.90625 17.1875 C 26.023438 17.058594 26.148438 16.964844 26.285156 16.902344 C 26.464844 16.820312 26.675781 16.777344 26.910156 16.777344 C 27.335938 16.777344 27.679688 16.925781 27.9375 17.210938 C 28.191406 17.5 28.320312 17.894531 28.320312 18.410156 C 28.320312 18.917969 28.191406 19.3125 27.9375 19.601562 C 27.683594 19.886719 27.34375 20.027344 26.917969 20.027344 C 26.484375 20.027344 26.144531 19.890625 25.886719 19.601562 C 25.632812 19.316406 25.503906 18.925781 25.503906 18.425781 C 25.503906 18.105469 25.550781 17.832031 25.636719 17.617188 Z M 22.699219 17.097656 C 22.699219 16.953125 22.808594 16.832031 22.945312 16.832031 L 23.933594 16.832031 C 24.242188 16.832031 24.46875 16.859375 24.609375 16.917969 C 24.75 16.972656 24.863281 17.074219 24.945312 17.21875 C 25.027344 17.363281 25.074219 17.53125 25.074219 17.714844 C 25.074219 17.949219 25.007812 18.144531 24.878906 18.300781 C 24.753906 18.453125 24.5625 18.546875 24.304688 18.589844 C 24.433594 18.667969 24.535156 18.757812 24.617188 18.851562 C 24.699219 18.949219 24.8125 19.121094 24.953125 19.363281 L 25.074219 19.570312 C 25.175781 19.75 25.058594 19.976562 24.863281 19.976562 L 24.738281 19.976562 C 24.65625 19.976562 24.582031 19.933594 24.535156 19.859375 L 24.183594 19.292969 C 24.035156 19.046875 23.933594 18.894531 23.875 18.828125 C 23.820312 18.765625 23.761719 18.722656 23.699219 18.699219 C 23.636719 18.675781 23.539062 18.664062 23.402344 18.664062 L 23.285156 18.664062 L 23.285156 19.710938 C 23.285156 19.859375 23.175781 19.976562 23.039062 19.976562 L 22.945312 19.976562 C 22.808594 19.976562 22.699219 19.859375 22.699219 19.710938 Z M 19.992188 17.097656 C 19.992188 16.953125 20.101562 16.832031 20.234375 16.832031 L 20.933594 16.832031 C 21.289062 16.832031 21.519531 16.847656 21.628906 16.878906 C 21.792969 16.929688 21.933594 17.03125 22.046875 17.1875 C 22.160156 17.34375 22.214844 17.550781 22.214844 17.800781 C 22.214844 17.992188 22.183594 18.15625 22.121094 18.285156 C 22.054688 18.417969 21.972656 18.519531 21.875 18.597656 C 21.773438 18.671875 21.671875 18.722656 21.570312 18.746094 C 21.429688 18.773438 21.226562 18.792969 20.960938 18.792969 L 20.824219 18.792969 C 20.6875 18.792969 20.578125 18.90625 20.578125 19.054688 L 20.578125 19.710938 C 20.578125 19.859375 20.46875 19.976562 20.335938 19.976562 L 20.234375 19.976562 C 20.101562 19.976562 19.992188 19.859375 19.992188 19.710938 Z M 19.480469 22.660156 C 19.480469 22.378906 19.707031 22.148438 19.992188 22.148438 L 29.015625 22.148438 C 29.300781 22.148438 29.527344 22.378906 29.527344 22.660156 L 29.527344 26.261719 C 29.527344 26.546875 29.300781 26.773438 29.015625 26.773438 L 19.992188 26.773438 C 19.707031 26.773438 19.480469 26.546875 19.480469 26.261719 Z M 19.992188 29.429688 L 31.574219 29.429688 C 31.855469 29.429688 32.085938 29.65625 32.085938 29.941406 C 32.085938 30.226562 31.855469 30.453125 31.574219 30.453125 L 19.992188 30.453125 C 19.707031 30.453125 19.480469 30.226562 19.480469 29.941406 C 19.480469 29.65625 19.707031 29.429688 19.992188 29.429688 Z M 19.992188 33.40625 L 32.136719 33.40625 C 32.421875 33.40625 32.652344 33.632812 32.652344 33.917969 C 32.652344 34.203125 32.421875 34.429688 32.136719 34.429688 L 19.992188 34.429688 C 19.707031 34.429688 19.480469 34.203125 19.480469 33.917969 C 19.480469 33.632812 19.707031 33.40625 19.992188 33.40625 Z M 34.863281 37.378906 C 35.148438 37.378906 35.375 37.605469 35.375 37.890625 C 35.375 38.175781 35.148438 38.402344 34.863281 38.402344 L 19.992188 38.402344 C 19.707031 38.402344 19.480469 38.175781 19.480469 37.890625 C 19.480469 37.605469 19.707031 37.378906 19.992188 37.378906 Z M 36.078125 19.285156 C 35.988281 19.496094 35.875 19.660156 35.726562 19.78125 C 35.527344 19.945312 35.269531 20.027344 34.957031 20.027344 C 34.574219 20.027344 34.253906 19.890625 34.007812 19.601562 C 33.757812 19.316406 33.636719 18.929688 33.636719 18.433594 C 33.636719 17.910156 33.757812 17.503906 34.007812 17.210938 C 34.257812 16.925781 34.585938 16.777344 34.992188 16.777344 C 35.347656 16.777344 35.636719 16.894531 35.859375 17.121094 C 35.925781 17.191406 35.988281 17.277344 36.039062 17.382812 C 36.113281 17.535156 36.039062 17.726562 35.882812 17.769531 L 35.789062 17.792969 C 35.683594 17.820312 35.5625 17.777344 35.515625 17.667969 C 35.476562 17.585938 35.421875 17.519531 35.359375 17.464844 C 35.25 17.367188 35.121094 17.320312 34.960938 17.320312 C 34.746094 17.320312 34.574219 17.40625 34.4375 17.574219 C 34.304688 17.738281 34.238281 18.011719 34.238281 18.382812 C 34.238281 18.785156 34.304688 19.066406 34.433594 19.234375 C 34.570312 19.402344 34.738281 19.488281 34.953125 19.488281 C 35.105469 19.488281 35.238281 19.433594 35.351562 19.328125 C 35.421875 19.257812 35.484375 19.164062 35.53125 19.042969 C 35.578125 18.921875 35.707031 18.859375 35.828125 18.902344 L 35.921875 18.933594 C 36.054688 18.980469 36.132812 19.144531 36.078125 19.285156 Z M 38.519531 17.367188 L 38.148438 17.367188 C 38.015625 17.367188 37.90625 17.480469 37.90625 17.628906 L 37.90625 19.710938 C 37.90625 19.859375 37.796875 19.976562 37.660156 19.976562 L 37.5625 19.976562 C 37.425781 19.976562 37.316406 19.859375 37.316406 19.710938 L 37.316406 17.628906 C 37.316406 17.480469 37.207031 17.367188 37.074219 17.367188 L 36.703125 17.367188 C 36.566406 17.367188 36.457031 17.246094 36.457031 17.097656 C 36.457031 16.953125 36.566406 16.832031 36.703125 16.832031 L 38.519531 16.832031 C 38.65625 16.832031 38.765625 16.953125 38.765625 17.097656 C 38.765625 17.246094 38.65625 17.367188 38.519531 17.367188 Z M 38.519531 17.367188 "/></g><path style=" stroke:none;fill-rule:nonzero;fill:#ffa726;fill-opacity:1;" d="M 41.203125 28.957031 L 41.203125 32.832031 C 40.957031 32.765625 40.722656 32.65625 40.511719 32.496094 C 40.359375 32.382812 40.222656 32.25 40.105469 32.089844 C 39.902344 31.820312 39.777344 31.515625 39.726562 31.167969 C 39.714844 31.082031 39.707031 30.988281 39.707031 30.890625 C 39.707031 30.796875 39.714844 30.703125 39.730469 30.597656 C 39.777344 30.277344 39.90625 29.960938 40.113281 29.691406 C 40.222656 29.539062 40.359375 29.402344 40.519531 29.285156 C 40.71875 29.132812 40.949219 29.023438 41.203125 28.957031 Z M 41.203125 28.957031 "/><path style=" stroke:none;fill-rule:nonzero;fill:#ffa726;fill-opacity:1;" d="M 43.726562 30.890625 C 43.726562 30.988281 43.714844 31.082031 43.699219 31.1875 C 43.652344 31.515625 43.53125 31.820312 43.320312 32.09375 C 43.210938 32.25 43.074219 32.382812 42.910156 32.503906 C 42.710938 32.65625 42.476562 32.765625 42.226562 32.832031 L 42.226562 28.953125 C 42.472656 29.019531 42.707031 29.128906 42.914062 29.285156 C 43.070312 29.402344 43.207031 29.539062 43.324219 29.691406 C 43.527344 29.960938 43.65625 30.277344 43.703125 30.613281 C 43.714844 30.703125 43.726562 30.796875 43.726562 30.890625 Z M 43.726562 30.890625 "/><path style=" stroke:none;fill-rule:nonzero;fill:#ffa726;fill-opacity:1;" d="M 21.613281 17.808594 C 21.613281 17.902344 21.589844 17.984375 21.546875 18.050781 C 21.5 18.125 21.4375 18.175781 21.363281 18.207031 C 21.285156 18.242188 21.132812 18.257812 20.898438 18.257812 L 20.824219 18.257812 C 20.6875 18.257812 20.578125 18.136719 20.578125 17.992188 L 20.578125 17.628906 C 20.578125 17.480469 20.6875 17.367188 20.824219 17.367188 L 20.859375 17.367188 C 21.074219 17.367188 21.214844 17.371094 21.28125 17.386719 C 21.378906 17.402344 21.457031 17.449219 21.519531 17.527344 C 21.578125 17.601562 21.613281 17.695312 21.613281 17.808594 Z M 21.613281 17.808594 "/><path style=" stroke:none;fill-rule:nonzero;fill:#ffa726;fill-opacity:1;" d="M 24.46875 17.753906 C 24.46875 17.847656 24.449219 17.925781 24.410156 17.992188 C 24.371094 18.050781 24.316406 18.097656 24.246094 18.125 C 24.175781 18.148438 24 18.164062 23.71875 18.164062 L 23.527344 18.164062 C 23.394531 18.164062 23.285156 18.042969 23.285156 17.898438 L 23.285156 17.628906 C 23.285156 17.480469 23.394531 17.367188 23.527344 17.367188 L 23.738281 17.367188 C 23.980469 17.367188 24.125 17.367188 24.171875 17.375 C 24.261719 17.394531 24.339844 17.433594 24.390625 17.5 C 24.441406 17.5625 24.46875 17.648438 24.46875 17.753906 Z M 24.46875 17.753906 "/><path style=" stroke:none;fill-rule:nonzero;fill:#ffa726;fill-opacity:1;" d="M 27.714844 18.394531 C 27.714844 18.757812 27.640625 19.03125 27.492188 19.214844 C 27.339844 19.394531 27.148438 19.488281 26.917969 19.488281 C 26.679688 19.488281 26.488281 19.394531 26.339844 19.210938 C 26.183594 19.027344 26.109375 18.757812 26.109375 18.402344 C 26.109375 18.042969 26.183594 17.769531 26.332031 17.589844 C 26.480469 17.410156 26.675781 17.320312 26.917969 17.320312 C 27.15625 17.320312 27.351562 17.410156 27.496094 17.585938 C 27.640625 17.765625 27.714844 18.03125 27.714844 18.394531 Z M 27.714844 18.394531 "/><path style=" stroke:none;fill-rule:nonzero;fill:#ffa726;fill-opacity:1;" d="M 28.503906 23.175781 L 20.503906 23.175781 L 20.503906 25.75 L 28.503906 25.75 Z M 28.503906 23.175781 "/></g></svg>