<svg xmlns="http://www.w3.org/2000/svg" xmlns:xlink="http://www.w3.org/1999/xlink" width="80" zoomAndPan="magnify" viewBox="0 0 60 67.92" height="80" preserveAspectRatio="xMidYMid meet" version="1.2"><defs><clipPath id="aa1e5cd6ab"><path d="M 11.273438 12.171875 L 48.726562 12.171875 L 48.726562 48 L 11.273438 48 Z M 11.273438 12.171875 "/></clipPath></defs><g id="9b46a03a3f"><path style=" stroke:none;fill-rule:nonzero;fill:#ffa726;fill-opacity:1;" d="M 28.804688 42.296875 C 29 42.410156 29.210938 42.464844 29.421875 42.464844 C 29.851562 42.464844 30.269531 42.242188 30.496094 41.84375 L 33.972656 35.828125 C 34.191406 35.441406 34.191406 34.96875 33.972656 34.585938 C 33.75 34.203125 33.339844 33.96875 32.898438 33.96875 L 29.25 33.96875 L 31.648438 29.808594 C 31.992188 29.214844 31.789062 28.457031 31.195312 28.117188 C 30.601562 27.773438 29.84375 27.976562 29.503906 28.570312 L 26.027344 34.585938 C 25.808594 34.96875 25.808594 35.441406 26.027344 35.828125 C 26.25 36.210938 26.660156 36.445312 27.101562 36.445312 L 30.75 36.445312 L 28.351562 40.605469 C 28.007812 41.195312 28.210938 41.957031 28.804688 42.296875 Z M 28.804688 42.296875 "/><g clip-rule="nonzero" clip-path="url(#aa1e5cd6ab)"><path style=" stroke:none;fill-rule:nonzero;fill:#ffa726;fill-opacity:1;" d="M 43.679688 22.652344 L 41.476562 22.652344 C 40.945312 20.859375 39.285156 19.550781 37.324219 19.550781 C 34.933594 19.550781 32.984375 21.496094 32.984375 23.886719 C 32.984375 26.28125 34.933594 28.226562 37.324219 28.226562 C 39.28125 28.226562 40.941406 26.917969 41.476562 25.132812 L 43.679688 25.132812 C 45.023438 25.132812 46.117188 26.226562 46.117188 27.570312 L 46.117188 42.84375 C 46.117188 44.1875 45.023438 45.28125 43.679688 45.28125 L 16.320312 45.28125 C 14.976562 45.28125 13.882812 44.1875 13.882812 42.84375 L 13.882812 27.570312 C 13.882812 26.226562 14.976562 25.132812 16.320312 25.132812 L 18.523438 25.132812 C 19.058594 26.917969 20.71875 28.226562 22.675781 28.226562 C 25.070312 28.226562 27.015625 26.28125 27.015625 23.886719 C 27.015625 23.140625 26.824219 22.441406 26.492188 21.828125 L 33.910156 14.410156 C 34.394531 13.925781 34.394531 13.140625 33.910156 12.65625 C 33.425781 12.171875 32.640625 12.171875 32.15625 12.65625 L 24.738281 20.074219 C 24.125 19.742188 23.421875 19.550781 22.675781 19.550781 C 20.714844 19.550781 19.058594 20.859375 18.523438 22.652344 L 16.320312 22.652344 C 13.609375 22.652344 11.402344 24.859375 11.402344 27.570312 L 11.402344 42.84375 C 11.402344 45.554688 13.609375 47.761719 16.320312 47.761719 L 43.679688 47.761719 C 46.390625 47.761719 48.597656 45.554688 48.597656 42.84375 L 48.597656 27.570312 C 48.597656 24.859375 46.390625 22.652344 43.679688 22.652344 Z M 37.324219 25.746094 C 36.296875 25.746094 35.464844 24.914062 35.464844 23.886719 C 35.464844 22.863281 36.296875 22.03125 37.324219 22.03125 C 38.347656 22.03125 39.179688 22.863281 39.179688 23.886719 C 39.179688 24.914062 38.347656 25.746094 37.324219 25.746094 Z M 22.675781 22.03125 C 23.703125 22.03125 24.535156 22.863281 24.535156 23.886719 C 24.535156 24.914062 23.703125 25.746094 22.675781 25.746094 C 21.652344 25.746094 20.820312 24.914062 20.820312 23.886719 C 20.820312 22.863281 21.652344 22.03125 22.675781 22.03125 Z M 22.675781 22.03125 "/></g></g></svg>