<svg xmlns="http://www.w3.org/2000/svg" xmlns:xlink="http://www.w3.org/1999/xlink" width="80" zoomAndPan="magnify" viewBox="0 0 60 67.92" height="80" preserveAspectRatio="xMidYMid meet" version="1.2"><defs><clipPath id="222969edd9"><path d="M 11.273438 8.714844 L 48.726562 8.714844 L 48.726562 41 L 11.273438 41 Z M 11.273438 8.714844 "/></clipPath><clipPath id="c18171a898"><path d="M 22 47 L 40 47 L 40 51.414062 L 22 51.414062 Z M 22 47 "/></clipPath></defs><g id="31fead908e"><g clip-rule="nonzero" clip-path="url(#222969edd9)"><path style=" stroke:none;fill-rule:nonzero;fill:#ffa726;fill-opacity:1;" d="M 28.058594 36.988281 C 28.058594 36.664062 28.058594 36.40625 28.058594 36.148438 C 28.058594 27.8125 28.058594 19.480469 28.066406 11.144531 C 28.066406 10.785156 28.070312 10.417969 28.132812 10.066406 C 28.28125 9.269531 28.875 8.757812 29.617188 8.738281 C 30.390625 8.714844 31.015625 9.210938 31.1875 10.035156 C 31.257812 10.363281 31.261719 10.710938 31.261719 11.050781 C 31.265625 19.402344 31.261719 27.757812 31.261719 36.113281 C 31.261719 36.371094 31.261719 36.628906 31.261719 36.9375 C 31.476562 36.953125 31.648438 36.976562 31.824219 36.972656 C 36.351562 36.9375 40.882812 36.898438 45.414062 36.855469 C 45.773438 36.851562 46.132812 36.824219 46.496094 36.824219 C 46.945312 36.820312 47.371094 36.90625 47.738281 37.191406 C 48.707031 37.945312 48.511719 39.4375 47.367188 39.882812 C 47.097656 39.988281 46.78125 40.023438 46.488281 40.027344 C 35.484375 40.132812 24.480469 40.230469 13.476562 40.324219 C 13.214844 40.324219 12.953125 40.324219 12.695312 40.285156 C 11.925781 40.164062 11.375 39.5625 11.328125 38.824219 C 11.285156 38.09375 11.769531 37.433594 12.53125 37.230469 C 12.777344 37.164062 13.042969 37.152344 13.304688 37.148438 C 17.992188 37.101562 22.683594 37.058594 27.375 37.015625 C 27.570312 37.015625 27.765625 37 28.058594 36.988281 Z M 28.058594 36.988281 "/></g><path style=" stroke:none;fill-rule:nonzero;fill:#ffa726;fill-opacity:1;" d="M 30.441406 45.433594 C 26.957031 45.464844 23.472656 45.5 19.988281 45.523438 C 19.648438 45.527344 19.300781 45.511719 18.976562 45.433594 C 18.300781 45.273438 17.832031 44.675781 17.800781 44.003906 C 17.769531 43.3125 18.210938 42.664062 18.894531 42.457031 C 19.160156 42.375 19.445312 42.339844 19.722656 42.339844 C 26.832031 42.285156 33.941406 42.238281 41.050781 42.195312 C 41.289062 42.191406 41.535156 42.203125 41.765625 42.257812 C 42.496094 42.433594 42.96875 43.054688 42.957031 43.789062 C 42.949219 44.535156 42.421875 45.171875 41.671875 45.3125 C 41.4375 45.355469 41.195312 45.359375 40.953125 45.359375 C 37.449219 45.394531 33.945312 45.421875 30.441406 45.453125 C 30.441406 45.445312 30.441406 45.441406 30.441406 45.433594 Z M 30.441406 45.433594 "/><g clip-rule="nonzero" clip-path="url(#c18171a898)"><path style=" stroke:none;fill-rule:nonzero;fill:#ffa726;fill-opacity:1;" d="M 30.859375 51.179688 C 28.675781 51.179688 26.492188 51.183594 24.308594 51.175781 C 23.96875 51.171875 23.625 51.15625 23.292969 51.085938 C 22.582031 50.929688 22.105469 50.332031 22.089844 49.625 C 22.070312 48.917969 22.511719 48.285156 23.214844 48.101562 C 23.558594 48.011719 23.925781 47.992188 24.285156 47.992188 C 28.152344 47.984375 32.019531 47.992188 35.882812 47.992188 C 36.484375 47.992188 37.085938 47.960938 37.6875 47.984375 C 38.019531 48 38.371094 48.058594 38.675781 48.183594 C 39.304688 48.441406 39.644531 49.066406 39.585938 49.730469 C 39.535156 50.363281 39.109375 50.914062 38.476562 51.085938 C 38.15625 51.171875 37.808594 51.199219 37.46875 51.203125 C 35.265625 51.210938 33.0625 51.207031 30.859375 51.207031 C 30.859375 51.199219 30.859375 51.1875 30.859375 51.179688 Z M 30.859375 51.179688 "/></g></g></svg>