<svg xmlns="http://www.w3.org/2000/svg" xmlns:xlink="http://www.w3.org/1999/xlink" width="80" zoomAndPan="magnify" viewBox="0 0 60 67.92" height="80" preserveAspectRatio="xMidYMid meet" version="1.2"><defs><clipPath id="f66edd63b8"><path d="M 28 36 L 32 36 L 32 48.960938 L 28 48.960938 Z M 28 36 "/></clipPath><clipPath id="121c7273cf"><path d="M 15 37 L 28 37 L 28 48.960938 L 15 48.960938 Z M 15 37 "/></clipPath><clipPath id="42ee707abf"><path d="M 11.273438 30 L 20 30 L 20 44 L 11.273438 44 Z M 11.273438 30 "/></clipPath><clipPath id="dfa00a5dde"><path d="M 15 42 L 17 42 L 17 48.960938 L 15 48.960938 Z M 15 42 "/></clipPath><clipPath id="f552460c5f"><path d="M 13 47 L 19 47 L 19 48.960938 L 13 48.960938 Z M 13 47 "/></clipPath><clipPath id="1ce2a03b22"><path d="M 32 37 L 45 37 L 45 48.960938 L 32 48.960938 Z M 32 37 "/></clipPath><clipPath id="dcde4f73d7"><path d="M 40 30 L 48.726562 30 L 48.726562 44 L 40 44 Z M 40 30 "/></clipPath><clipPath id="c88a784cc9"><path d="M 43 42 L 45 42 L 45 48.960938 L 43 48.960938 Z M 43 42 "/></clipPath><clipPath id="bb9529274d"><path d="M 41 47 L 47 47 L 47 48.960938 L 41 48.960938 Z M 41 47 "/></clipPath><clipPath id="210e67d7f2"><path d="M 19 10.757812 L 36 10.757812 L 36 25 L 19 25 Z M 19 10.757812 "/></clipPath></defs><g id="51cfd0078b"><path style=" stroke:none;fill-rule:evenodd;fill:#ffa726;fill-opacity:1;" d="M 22.609375 35.835938 L 37.1875 35.835938 L 37.1875 37.699219 L 22.609375 37.699219 Z M 22.609375 35.835938 "/><g clip-rule="nonzero" clip-path="url(#f66edd63b8)"><path style=" stroke:none;fill-rule:evenodd;fill:#ffa726;fill-opacity:1;" d="M 28.621094 36.59375 L 31.175781 36.59375 L 31.175781 48.960938 L 28.621094 48.960938 Z M 28.621094 36.59375 "/></g><path style=" stroke:none;fill-rule:nonzero;fill:#ffa726;fill-opacity:1;" d="M 19.5 38.667969 C 19.363281 40.117188 18.050781 41.15625 16.597656 40.949219 C 15.148438 40.808594 14.109375 39.496094 14.316406 38.046875 L 15.214844 30.515625 C 15.355469 29.066406 16.667969 28.027344 18.117188 28.234375 C 19.570312 28.375 20.605469 29.6875 20.398438 31.136719 Z M 19.5 38.667969 "/><path style=" stroke:none;fill-rule:evenodd;fill:#ffa726;fill-opacity:1;" d="M 18.601562 21.535156 C 20.121094 21.535156 21.363281 22.777344 21.363281 24.296875 C 21.363281 25.816406 20.121094 27.0625 18.601562 27.0625 C 17.082031 27.0625 15.839844 25.816406 15.839844 24.296875 C 15.839844 22.777344 17.082031 21.535156 18.601562 21.535156 Z M 18.601562 21.535156 "/><path style=" stroke:none;fill-rule:nonzero;fill:#ffa726;fill-opacity:1;" d="M 17.980469 30.652344 C 17.566406 30.171875 17.632812 29.480469 18.050781 29.132812 C 18.53125 28.71875 19.222656 28.789062 19.570312 29.203125 L 22.332031 32.378906 L 24.957031 32.378906 C 25.578125 32.378906 26.0625 32.863281 26.0625 33.484375 C 26.0625 34.109375 25.578125 34.589844 24.957031 34.589844 L 21.847656 34.589844 C 21.574219 34.589844 21.226562 34.453125 21.019531 34.246094 L 17.910156 30.722656 Z M 17.980469 30.652344 "/><g clip-rule="nonzero" clip-path="url(#121c7273cf)"><path style=" stroke:none;fill-rule:nonzero;fill:#ffa726;fill-opacity:1;" d="M 16.667969 40.949219 C 15.976562 40.808594 15.355469 39.359375 15.421875 38.667969 C 15.5625 37.976562 16.253906 37.492188 16.945312 37.632812 C 16.945312 37.632812 24.128906 38.804688 27.238281 46.75 C 27.515625 47.441406 27.167969 48.203125 26.476562 48.410156 C 25.785156 48.683594 25.027344 48.339844 24.820312 47.648438 C 22.332031 41.085938 16.734375 40.949219 16.734375 40.949219 Z M 16.667969 40.949219 "/></g><g clip-rule="nonzero" clip-path="url(#42ee707abf)"><path style=" stroke:none;fill-rule:nonzero;fill:#ffa726;fill-opacity:1;" d="M 19.292969 42.398438 C 19.5 42.46875 19.636719 42.742188 19.570312 42.949219 C 19.5 43.160156 19.222656 43.296875 19.015625 43.226562 C 19.015625 43.226562 18.324219 43.019531 17.425781 42.8125 C 16.804688 42.675781 16.113281 42.675781 15.492188 42.675781 C 13.835938 42.675781 12.453125 42.675781 12.039062 40.738281 C 11.96875 40.394531 11.898438 39.980469 11.832031 39.496094 C 11.832031 39.082031 11.761719 38.597656 11.761719 38.113281 C 11.761719 37.492188 11.761719 36.941406 11.761719 36.457031 C 11.761719 34.453125 11.761719 32.863281 11.347656 30.515625 C 11.277344 30.308594 11.484375 30.03125 11.691406 30.03125 C 11.898438 29.960938 12.175781 30.171875 12.175781 30.378906 C 12.589844 32.796875 12.589844 34.382812 12.589844 36.457031 C 12.589844 37.007812 12.589844 37.492188 12.589844 38.113281 C 12.589844 38.53125 12.589844 39.011719 12.660156 39.425781 C 12.660156 39.84375 12.730469 40.1875 12.796875 40.53125 C 13.074219 41.777344 14.179688 41.777344 15.421875 41.777344 C 16.113281 41.777344 16.804688 41.777344 17.496094 41.914062 C 18.464844 42.121094 19.152344 42.328125 19.152344 42.328125 Z M 19.292969 42.398438 "/></g><g clip-rule="nonzero" clip-path="url(#dfa00a5dde)"><path style=" stroke:none;fill-rule:nonzero;fill:#ffa726;fill-opacity:1;" d="M 15.007812 42.261719 L 16.113281 42.261719 L 16.113281 48.617188 L 15.007812 48.617188 Z M 15.007812 42.261719 "/></g><g clip-rule="nonzero" clip-path="url(#f552460c5f)"><path style=" stroke:none;fill-rule:nonzero;fill:#ffa726;fill-opacity:1;" d="M 17.566406 47.785156 C 17.839844 47.785156 18.117188 48.0625 18.117188 48.339844 C 18.117188 48.617188 17.839844 48.890625 17.566406 48.890625 L 13.558594 48.890625 C 13.28125 48.890625 13.003906 48.617188 13.003906 48.339844 C 13.003906 48.0625 13.28125 47.785156 13.558594 47.785156 Z M 17.566406 47.785156 "/></g><path style=" stroke:none;fill-rule:nonzero;fill:#ffa726;fill-opacity:1;" d="M 40.292969 38.667969 C 40.433594 40.117188 41.746094 41.15625 43.195312 40.949219 C 44.648438 40.808594 45.683594 39.496094 45.476562 38.046875 L 44.578125 30.515625 C 44.441406 29.066406 43.128906 28.027344 41.675781 28.234375 C 40.226562 28.375 39.191406 29.6875 39.398438 31.136719 Z M 40.292969 38.667969 "/><path style=" stroke:none;fill-rule:evenodd;fill:#ffa726;fill-opacity:1;" d="M 41.191406 21.535156 C 39.671875 21.535156 38.429688 22.777344 38.429688 24.296875 C 38.429688 25.816406 39.671875 27.0625 41.191406 27.0625 C 42.710938 27.0625 43.957031 25.816406 43.957031 24.296875 C 43.957031 22.777344 42.710938 21.535156 41.191406 21.535156 Z M 41.191406 21.535156 "/><path style=" stroke:none;fill-rule:nonzero;fill:#ffa726;fill-opacity:1;" d="M 41.816406 30.652344 C 42.230469 30.171875 42.160156 29.480469 41.746094 29.132812 C 41.261719 28.71875 40.570312 28.789062 40.226562 29.203125 L 37.460938 32.378906 L 34.835938 32.378906 C 34.214844 32.378906 33.730469 32.863281 33.730469 33.484375 C 33.730469 34.109375 34.214844 34.589844 34.835938 34.589844 L 37.945312 34.589844 C 38.222656 34.589844 38.566406 34.453125 38.773438 34.246094 L 41.882812 30.722656 Z M 41.816406 30.652344 "/><g clip-rule="nonzero" clip-path="url(#1ce2a03b22)"><path style=" stroke:none;fill-rule:nonzero;fill:#ffa726;fill-opacity:1;" d="M 43.195312 40.949219 C 43.886719 40.808594 44.507812 39.359375 44.441406 38.667969 C 44.300781 37.976562 43.609375 37.492188 42.921875 37.632812 C 42.921875 37.632812 35.734375 38.804688 32.625 46.75 C 32.351562 47.441406 32.695312 48.203125 33.386719 48.410156 C 34.078125 48.683594 34.835938 48.339844 35.042969 47.648438 C 37.53125 41.085938 43.128906 40.949219 43.128906 40.949219 Z M 43.195312 40.949219 "/></g><g clip-rule="nonzero" clip-path="url(#dcde4f73d7)"><path style=" stroke:none;fill-rule:nonzero;fill:#ffa726;fill-opacity:1;" d="M 40.503906 42.398438 C 40.292969 42.46875 40.15625 42.742188 40.226562 42.949219 C 40.292969 43.160156 40.570312 43.296875 40.777344 43.226562 C 40.777344 43.226562 41.46875 43.019531 42.367188 42.8125 C 42.988281 42.675781 43.679688 42.675781 44.300781 42.675781 C 45.960938 42.675781 47.339844 42.675781 47.757812 40.738281 C 47.824219 40.394531 47.894531 39.980469 47.964844 39.496094 C 47.964844 39.082031 48.03125 38.597656 48.03125 38.113281 C 48.03125 37.492188 48.03125 36.941406 48.03125 36.457031 C 48.03125 34.453125 48.03125 32.863281 48.445312 30.515625 C 48.515625 30.308594 48.308594 30.03125 48.101562 30.03125 C 47.894531 29.960938 47.617188 30.171875 47.617188 30.378906 C 47.203125 32.796875 47.203125 34.382812 47.203125 36.457031 C 47.203125 37.007812 47.203125 37.492188 47.203125 38.113281 C 47.203125 38.53125 47.203125 39.011719 47.132812 39.425781 C 47.132812 39.84375 47.066406 40.1875 46.996094 40.53125 C 46.71875 41.777344 45.613281 41.777344 44.371094 41.777344 C 43.679688 41.777344 42.988281 41.777344 42.296875 41.914062 C 41.332031 42.121094 40.640625 42.328125 40.640625 42.328125 Z M 40.503906 42.398438 "/></g><g clip-rule="nonzero" clip-path="url(#c88a784cc9)"><path style=" stroke:none;fill-rule:nonzero;fill:#ffa726;fill-opacity:1;" d="M 43.679688 42.261719 L 43.679688 48.617188 L 44.785156 48.617188 L 44.785156 42.261719 Z M 43.679688 42.261719 "/></g><g clip-rule="nonzero" clip-path="url(#bb9529274d)"><path style=" stroke:none;fill-rule:nonzero;fill:#ffa726;fill-opacity:1;" d="M 42.230469 47.785156 C 41.953125 47.785156 41.675781 48.0625 41.675781 48.339844 C 41.675781 48.617188 41.953125 48.890625 42.230469 48.890625 L 46.234375 48.890625 C 46.511719 48.890625 46.789062 48.617188 46.789062 48.339844 C 46.789062 48.0625 46.511719 47.785156 46.234375 47.785156 Z M 42.230469 47.785156 "/></g><path style=" stroke:none;fill-rule:evenodd;fill:#ffa726;fill-opacity:1;" d="M 25.097656 23.398438 C 25.304688 23.46875 25.511719 23.46875 25.648438 23.46875 L 31.726562 23.46875 L 34.976562 26.714844 L 34.976562 23.46875 C 36.632812 23.46875 38.015625 22.085938 38.015625 20.429688 L 38.015625 16.351562 C 38.015625 15.109375 37.253906 14.003906 36.21875 13.519531 C 36.21875 13.660156 36.21875 13.726562 36.21875 13.867188 L 36.21875 14.832031 C 36.632812 15.179688 36.910156 15.730469 36.910156 16.351562 L 36.910156 20.429688 C 36.910156 21.535156 36.011719 22.433594 34.90625 22.433594 L 33.800781 22.433594 L 33.800781 24.160156 L 32.074219 22.433594 L 25.992188 22.433594 L 24.957031 23.46875 Z M 25.097656 23.398438 "/><g clip-rule="nonzero" clip-path="url(#210e67d7f2)"><path style=" stroke:none;fill-rule:evenodd;fill:#ffa726;fill-opacity:1;" d="M 23.023438 10.757812 L 32.351562 10.757812 C 34.007812 10.757812 35.390625 12.136719 35.390625 13.796875 L 35.390625 17.871094 C 35.390625 19.53125 34.007812 20.914062 32.351562 20.914062 L 26.269531 20.914062 L 23.023438 24.160156 L 23.023438 20.914062 C 21.363281 20.914062 19.984375 19.53125 19.984375 17.871094 L 19.984375 13.796875 C 19.984375 12.136719 21.363281 10.757812 23.023438 10.757812 Z M 24.058594 14.695312 C 24.679688 14.695312 25.234375 15.246094 25.234375 15.867188 C 25.234375 16.492188 24.679688 17.042969 24.058594 17.042969 C 23.4375 17.042969 22.886719 16.492188 22.886719 15.867188 C 22.886719 15.246094 23.4375 14.695312 24.058594 14.695312 Z M 27.722656 14.695312 C 28.34375 14.695312 28.894531 15.246094 28.894531 15.867188 C 28.894531 16.492188 28.34375 17.042969 27.722656 17.042969 C 27.097656 17.042969 26.546875 16.492188 26.546875 15.867188 C 26.546875 15.246094 27.097656 14.695312 27.722656 14.695312 Z M 31.382812 14.695312 C 32.003906 14.695312 32.558594 15.246094 32.558594 15.867188 C 32.558594 16.492188 32.003906 17.042969 31.382812 17.042969 C 30.761719 17.042969 30.207031 16.492188 30.207031 15.867188 C 30.207031 15.246094 30.761719 14.695312 31.382812 14.695312 Z M 31.382812 14.695312 "/></g></g></svg>