<svg xmlns="http://www.w3.org/2000/svg" xmlns:xlink="http://www.w3.org/1999/xlink" width="80" zoomAndPan="magnify" viewBox="0 0 60 67.92" height="80" preserveAspectRatio="xMidYMid meet" version="1.2"><defs><clipPath id="ad9203441a"><path d="M 11.273438 13.042969 L 48.726562 13.042969 L 48.726562 46.75 L 11.273438 46.75 Z M 11.273438 13.042969 "/></clipPath></defs><g id="06aacb7f85"><g clip-rule="nonzero" clip-path="url(#ad9203441a)"><path style=" stroke:none;fill-rule:nonzero;fill:#ffa726;fill-opacity:1;" d="M 11.824219 29.683594 L 13.480469 29.683594 L 13.480469 39.519531 L 11.824219 39.519531 C 11.519531 39.519531 11.273438 39.273438 11.273438 38.96875 L 11.273438 30.230469 C 11.273438 29.921875 11.519531 29.675781 11.824219 29.675781 Z M 41.808594 13.050781 L 39.980469 13.050781 L 39.980469 14.175781 L 41.808594 14.175781 Z M 37.683594 15.976562 L 44.101562 15.976562 C 44.324219 15.976562 44.503906 15.796875 44.503906 15.570312 C 44.503906 15.347656 44.324219 15.167969 44.101562 15.167969 L 37.683594 15.167969 C 37.457031 15.167969 37.28125 15.347656 37.28125 15.570312 C 37.28125 15.796875 37.457031 15.976562 37.683594 15.976562 Z M 37.683594 17.765625 L 44.101562 17.765625 C 44.324219 17.765625 44.503906 17.585938 44.503906 17.363281 C 44.503906 17.140625 44.324219 16.960938 44.101562 16.960938 L 37.683594 16.960938 C 37.457031 16.960938 37.28125 17.140625 37.28125 17.363281 C 37.28125 17.585938 37.457031 17.765625 37.683594 17.765625 Z M 37.683594 19.558594 L 44.101562 19.558594 C 44.324219 19.558594 44.503906 19.378906 44.503906 19.152344 C 44.503906 18.929688 44.324219 18.75 44.101562 18.75 L 37.683594 18.75 C 37.457031 18.75 37.28125 18.929688 37.28125 19.152344 C 37.28125 19.378906 37.457031 19.558594 37.683594 19.558594 Z M 30.839844 13.050781 L 29.011719 13.050781 L 29.011719 14.175781 L 30.839844 14.175781 Z M 26.71875 15.976562 L 33.136719 15.976562 C 33.363281 15.976562 33.539062 15.796875 33.539062 15.570312 C 33.539062 15.347656 33.363281 15.167969 33.136719 15.167969 L 26.71875 15.167969 C 26.496094 15.167969 26.316406 15.347656 26.316406 15.570312 C 26.316406 15.796875 26.496094 15.976562 26.71875 15.976562 Z M 26.71875 17.765625 L 33.136719 17.765625 C 33.363281 17.765625 33.539062 17.585938 33.539062 17.363281 C 33.539062 17.140625 33.363281 16.960938 33.136719 16.960938 L 26.71875 16.960938 C 26.496094 16.960938 26.316406 17.140625 26.316406 17.363281 C 26.316406 17.585938 26.496094 17.765625 26.71875 17.765625 Z M 26.71875 19.558594 L 33.136719 19.558594 C 33.363281 19.558594 33.539062 19.378906 33.539062 19.152344 C 33.539062 18.929688 33.363281 18.75 33.136719 18.75 L 26.71875 18.75 C 26.496094 18.75 26.316406 18.929688 26.316406 19.152344 C 26.316406 19.378906 26.496094 19.558594 26.71875 19.558594 Z M 19.875 13.050781 L 18.046875 13.050781 L 18.046875 14.175781 L 19.875 14.175781 Z M 15.757812 15.976562 L 22.175781 15.976562 C 22.398438 15.976562 22.578125 15.796875 22.578125 15.570312 C 22.578125 15.347656 22.398438 15.167969 22.175781 15.167969 L 15.757812 15.167969 C 15.535156 15.167969 15.355469 15.347656 15.355469 15.570312 C 15.355469 15.796875 15.535156 15.976562 15.757812 15.976562 Z M 15.757812 17.765625 L 22.175781 17.765625 C 22.398438 17.765625 22.578125 17.585938 22.578125 17.363281 C 22.578125 17.140625 22.398438 16.960938 22.175781 16.960938 L 15.757812 16.960938 C 15.535156 16.960938 15.355469 17.140625 15.355469 17.363281 C 15.355469 17.585938 15.535156 17.765625 15.757812 17.765625 Z M 15.757812 19.558594 L 22.175781 19.558594 C 22.398438 19.558594 22.578125 19.378906 22.578125 19.152344 C 22.578125 18.929688 22.398438 18.75 22.175781 18.75 L 15.757812 18.75 C 15.535156 18.75 15.355469 18.929688 15.355469 19.152344 C 15.355469 19.378906 15.535156 19.558594 15.757812 19.558594 Z M 45.792969 20.550781 L 14.0625 20.550781 L 14.0625 22.207031 L 45.792969 22.207031 Z M 16.347656 23.207031 L 16.347656 25.371094 L 43.503906 25.371094 L 43.503906 23.207031 Z M 43.59375 43.734375 L 16.265625 43.734375 L 16.265625 45.542969 L 13.921875 45.542969 L 13.921875 46.742188 L 45.9375 46.742188 L 45.9375 45.542969 L 43.59375 45.542969 Z M 48.03125 29.683594 L 46.375 29.683594 L 46.375 39.519531 L 48.03125 39.519531 C 48.339844 39.519531 48.585938 39.273438 48.585938 38.96875 L 48.585938 30.230469 C 48.585938 29.921875 48.339844 29.675781 48.03125 29.675781 Z M 25.675781 34.601562 C 25.675781 32.257812 27.585938 30.347656 29.929688 30.347656 C 32.273438 30.347656 34.183594 32.257812 34.183594 34.601562 C 34.183594 36.945312 32.273438 38.855469 29.929688 38.855469 C 27.585938 38.855469 25.675781 36.945312 25.675781 34.601562 Z M 27.699219 34.789062 C 27.773438 34.976562 27.957031 35.101562 28.160156 35.101562 L 30.429688 35.101562 L 28.726562 36.667969 C 28.527344 36.855469 28.511719 37.167969 28.699219 37.371094 C 28.792969 37.476562 28.929688 37.535156 29.0625 37.535156 C 29.199219 37.535156 29.300781 37.488281 29.398438 37.398438 L 32.039062 34.976562 C 32.191406 34.832031 32.242188 34.617188 32.167969 34.429688 C 32.09375 34.234375 31.90625 34.117188 31.703125 34.117188 L 29.398438 34.117188 L 31.039062 32.542969 C 31.242188 32.355469 31.242188 32.042969 31.054688 31.839844 C 30.867188 31.640625 30.546875 31.632812 30.355469 31.824219 L 27.816406 34.25 C 27.667969 34.394531 27.621094 34.609375 27.699219 34.796875 Z M 14.472656 26.363281 L 45.382812 26.363281 L 45.382812 42.742188 L 14.472656 42.742188 Z M 41.027344 40.75 C 41.027344 41.027344 41.25 41.25 41.527344 41.25 C 41.800781 41.25 42.027344 41.027344 42.027344 40.75 L 42.027344 28.363281 C 42.027344 28.085938 41.800781 27.863281 41.527344 27.863281 C 41.25 27.863281 41.027344 28.085938 41.027344 28.363281 Z M 36.390625 40.75 C 36.390625 41.027344 36.617188 41.25 36.890625 41.25 C 37.167969 41.25 37.390625 41.027344 37.390625 40.75 L 37.390625 28.363281 C 37.390625 28.085938 37.167969 27.863281 36.890625 27.863281 C 36.617188 27.863281 36.390625 28.085938 36.390625 28.363281 Z M 24.683594 34.601562 C 24.683594 36.460938 25.652344 38.085938 27.117188 39.019531 L 27.117188 40.75 C 27.117188 41.027344 27.339844 41.25 27.617188 41.25 C 27.890625 41.25 28.117188 41.027344 28.117188 40.75 L 28.117188 39.519531 C 28.683594 39.730469 29.292969 39.855469 29.9375 39.855469 C 30.578125 39.855469 31.191406 39.734375 31.757812 39.519531 L 31.757812 40.75 C 31.757812 41.027344 31.980469 41.25 32.257812 41.25 C 32.535156 41.25 32.757812 41.027344 32.757812 40.75 L 32.757812 39.019531 C 34.21875 38.085938 35.191406 36.460938 35.191406 34.601562 C 35.191406 32.742188 34.21875 31.117188 32.757812 30.183594 L 32.757812 28.363281 C 32.757812 28.085938 32.535156 27.863281 32.257812 27.863281 C 31.980469 27.863281 31.757812 28.085938 31.757812 28.363281 L 31.757812 29.691406 C 31.191406 29.484375 30.578125 29.355469 29.9375 29.355469 C 29.292969 29.355469 28.683594 29.476562 28.117188 29.691406 L 28.117188 28.363281 C 28.117188 28.085938 27.890625 27.863281 27.617188 27.863281 C 27.339844 27.863281 27.117188 28.085938 27.117188 28.363281 L 27.117188 30.183594 C 25.652344 31.117188 24.683594 32.742188 24.683594 34.601562 Z M 22.472656 40.75 C 22.472656 41.027344 22.699219 41.25 22.972656 41.25 C 23.25 41.25 23.472656 41.027344 23.472656 40.75 L 23.472656 28.363281 C 23.472656 28.085938 23.25 27.863281 22.972656 27.863281 C 22.699219 27.863281 22.472656 28.085938 22.472656 28.363281 Z M 17.839844 40.75 C 17.839844 41.027344 18.0625 41.25 18.339844 41.25 C 18.617188 41.25 18.839844 41.027344 18.839844 40.75 L 18.839844 28.363281 C 18.839844 28.085938 18.617188 27.863281 18.339844 27.863281 C 18.0625 27.863281 17.839844 28.085938 17.839844 28.363281 Z M 17.839844 40.75 "/></g></g></svg>