<svg xmlns="http://www.w3.org/2000/svg" xmlns:xlink="http://www.w3.org/1999/xlink" width="80" zoomAndPan="magnify" viewBox="0 0 60 67.92" height="80" preserveAspectRatio="xMidYMid meet" version="1.2"><defs><clipPath id="6d0829703c"><path d="M 29 2.773438 L 31 2.773438 L 31 6 L 29 6 Z M 29 2.773438 "/></clipPath><clipPath id="f126f49eb9"><path d="M 11.273438 19 L 48.726562 19 L 48.726562 52 L 11.273438 52 Z M 11.273438 19 "/></clipPath></defs><g id="708a8c672e"><path style=" stroke:none;fill-rule:nonzero;fill:#ffa726;fill-opacity:1;" d="M 30.574219 24.476562 L 36.972656 24.476562 L 36.757812 22.066406 L 30.574219 22.066406 Z M 30.574219 24.476562 "/><path style=" stroke:none;fill-rule:nonzero;fill:#ffa726;fill-opacity:1;" d="M 29.367188 25.683594 L 22.863281 25.683594 L 22.542969 29.300781 L 29.367188 29.300781 Z M 29.367188 25.683594 "/><path style=" stroke:none;fill-rule:nonzero;fill:#ffa726;fill-opacity:1;" d="M 22.117188 34.125 L 29.367188 34.125 L 29.367188 30.507812 L 22.4375 30.507812 Z M 22.117188 34.125 "/><path style=" stroke:none;fill-rule:nonzero;fill:#ffa726;fill-opacity:1;" d="M 30.574219 25.683594 L 30.574219 29.300781 L 37.398438 29.300781 L 37.078125 25.683594 Z M 30.574219 25.683594 "/><path style=" stroke:none;fill-rule:nonzero;fill:#ffa726;fill-opacity:1;" d="M 29.367188 22.066406 L 23.179688 22.066406 L 22.96875 24.476562 L 29.367188 24.476562 Z M 29.367188 22.066406 "/><path style=" stroke:none;fill-rule:nonzero;fill:#ffa726;fill-opacity:1;" d="M 21.652344 25.683594 L 16.378906 25.683594 L 15.742188 29.300781 L 21.332031 29.300781 Z M 21.652344 25.683594 "/><path style=" stroke:none;fill-rule:nonzero;fill:#ffa726;fill-opacity:1;" d="M 20.90625 34.125 L 21.226562 30.507812 L 15.527344 30.507812 L 14.890625 34.125 Z M 20.90625 34.125 "/><path style=" stroke:none;fill-rule:nonzero;fill:#ffa726;fill-opacity:1;" d="M 30.574219 34.125 L 37.824219 34.125 L 37.503906 30.507812 L 30.574219 30.507812 Z M 30.574219 34.125 "/><path style=" stroke:none;fill-rule:nonzero;fill:#ffa726;fill-opacity:1;" d="M 20.800781 35.328125 L 14.675781 35.328125 L 14.039062 38.949219 L 20.480469 38.949219 Z M 20.800781 35.328125 "/><path style=" stroke:none;fill-rule:nonzero;fill:#ffa726;fill-opacity:1;" d="M 39.140625 35.328125 L 39.457031 38.949219 L 45.902344 38.949219 L 45.261719 35.328125 Z M 39.140625 35.328125 "/><path style=" stroke:none;fill-rule:nonzero;fill:#ffa726;fill-opacity:1;" d="M 21.757812 24.476562 L 21.96875 22.066406 L 17.019531 22.066406 L 16.59375 24.476562 Z M 21.757812 24.476562 "/><path style=" stroke:none;fill-rule:nonzero;fill:#ffa726;fill-opacity:1;" d="M 43.558594 25.683594 L 38.289062 25.683594 L 38.609375 29.300781 L 44.199219 29.300781 Z M 43.558594 25.683594 "/><path style=" stroke:none;fill-rule:nonzero;fill:#ffa726;fill-opacity:1;" d="M 44.410156 30.507812 L 38.714844 30.507812 L 39.035156 34.125 L 45.050781 34.125 Z M 44.410156 30.507812 "/><path style=" stroke:none;fill-rule:nonzero;fill:#ffa726;fill-opacity:1;" d="M 38.183594 24.476562 L 43.347656 24.476562 L 42.921875 22.066406 L 37.96875 22.066406 Z M 38.183594 24.476562 "/><path style=" stroke:none;fill-rule:nonzero;fill:#ffa726;fill-opacity:1;" d="M 29.96875 6.992188 C 27.976562 6.992188 26.351562 8.617188 26.351562 10.609375 C 26.523438 15.398438 33.417969 15.398438 33.585938 10.609375 C 33.585938 8.617188 31.964844 6.992188 29.96875 6.992188 Z M 29.96875 6.992188 "/><g clip-rule="nonzero" clip-path="url(#6d0829703c)"><path style=" stroke:none;fill-rule:nonzero;fill:#ffa726;fill-opacity:1;" d="M 29.96875 5.789062 C 30.304688 5.789062 30.574219 5.519531 30.574219 5.183594 L 30.574219 3.375 C 30.574219 3.042969 30.304688 2.773438 29.96875 2.773438 C 29.636719 2.773438 29.367188 3.042969 29.367188 3.375 L 29.367188 5.183594 C 29.367188 5.519531 29.636719 5.789062 29.96875 5.789062 Z M 29.96875 5.789062 "/></g><path style=" stroke:none;fill-rule:nonzero;fill:#ffa726;fill-opacity:1;" d="M 26.871094 6.917969 C 27.125 6.703125 27.15625 6.320312 26.945312 6.066406 L 25.78125 4.683594 C 25.566406 4.425781 25.1875 4.394531 24.933594 4.605469 C 24.675781 4.820312 24.644531 5.203125 24.859375 5.457031 L 26.019531 6.84375 C 26.234375 7.097656 26.617188 7.128906 26.871094 6.917969 Z M 26.871094 6.917969 "/><path style=" stroke:none;fill-rule:nonzero;fill:#ffa726;fill-opacity:1;" d="M 24.625 10.273438 C 25.34375 10.277344 25.445312 9.199219 24.730469 9.074219 C 24.730469 9.074219 22.949219 8.761719 22.949219 8.761719 C 22.167969 8.636719 21.960938 9.796875 22.738281 9.949219 C 22.738281 9.949219 24.519531 10.261719 24.519531 10.261719 C 24.558594 10.269531 24.59375 10.273438 24.625 10.273438 Z M 24.625 10.273438 "/><path style=" stroke:none;fill-rule:nonzero;fill:#ffa726;fill-opacity:1;" d="M 24.96875 12.800781 L 23.402344 13.707031 C 22.722656 14.117188 23.316406 15.136719 24.007812 14.75 C 24.007812 14.75 25.570312 13.847656 25.570312 13.847656 C 26.25 13.4375 25.660156 12.417969 24.96875 12.800781 Z M 24.96875 12.800781 "/><path style=" stroke:none;fill-rule:nonzero;fill:#ffa726;fill-opacity:1;" d="M 28.320312 15.144531 C 28.007812 15.03125 27.660156 15.191406 27.546875 15.503906 L 26.929688 17.203125 C 26.816406 17.515625 26.976562 17.863281 27.289062 17.976562 C 27.59375 18.089844 27.949219 17.933594 28.0625 17.617188 C 28.0625 17.617188 28.679688 15.914062 28.679688 15.914062 C 28.792969 15.601562 28.632812 15.257812 28.320312 15.144531 Z M 28.320312 15.144531 "/><path style=" stroke:none;fill-rule:nonzero;fill:#ffa726;fill-opacity:1;" d="M 32.390625 15.503906 C 32.109375 14.761719 31 15.167969 31.257812 15.917969 C 31.257812 15.917969 31.878906 17.617188 31.878906 17.617188 C 32.15625 18.359375 33.277344 17.941406 33.011719 17.203125 C 33.011719 17.203125 32.390625 15.503906 32.390625 15.503906 Z M 32.390625 15.503906 "/><path style=" stroke:none;fill-rule:nonzero;fill:#ffa726;fill-opacity:1;" d="M 36.535156 13.707031 L 34.96875 12.800781 C 34.277344 12.417969 33.6875 13.4375 34.367188 13.847656 C 34.574219 13.933594 36.019531 14.890625 36.234375 14.832031 C 36.828125 14.855469 37.070312 13.992188 36.535156 13.707031 Z M 36.535156 13.707031 "/><path style=" stroke:none;fill-rule:nonzero;fill:#ffa726;fill-opacity:1;" d="M 36.988281 8.761719 L 35.207031 9.074219 C 34.492188 9.199219 34.59375 10.277344 35.3125 10.273438 C 35.347656 10.273438 35.382812 10.269531 35.417969 10.261719 L 37.199219 9.949219 C 37.976562 9.796875 37.769531 8.636719 36.988281 8.761719 Z M 36.988281 8.761719 "/><path style=" stroke:none;fill-rule:nonzero;fill:#ffa726;fill-opacity:1;" d="M 35.007812 4.605469 C 34.753906 4.394531 34.371094 4.425781 34.160156 4.679688 L 32.996094 6.066406 C 32.78125 6.320312 32.816406 6.703125 33.070312 6.917969 C 33.324219 7.128906 33.703125 7.097656 33.917969 6.84375 C 33.917969 6.84375 35.082031 5.457031 35.082031 5.457031 C 35.296875 5.203125 35.261719 4.820312 35.007812 4.605469 Z M 35.007812 4.605469 "/><path style=" stroke:none;fill-rule:nonzero;fill:#ffa726;fill-opacity:1;" d="M 29.367188 38.375 L 29.367188 35.328125 L 22.011719 35.328125 L 21.691406 38.949219 L 26.847656 38.949219 C 27.636719 38.632812 28.484375 38.4375 29.367188 38.375 Z M 29.367188 38.375 "/><path style=" stroke:none;fill-rule:nonzero;fill:#ffa726;fill-opacity:1;" d="M 33.089844 38.949219 L 38.25 38.949219 L 37.929688 35.328125 L 30.574219 35.328125 L 30.574219 38.375 C 31.457031 38.4375 32.300781 38.632812 33.089844 38.949219 Z M 33.089844 38.949219 "/><g clip-rule="nonzero" clip-path="url(#f126f49eb9)"><path style=" stroke:none;fill-rule:nonzero;fill:#ffa726;fill-opacity:1;" d="M 48.648438 40.699219 C 48.699219 40.660156 45.011719 20.195312 45.03125 20.152344 C 44.980469 19.863281 44.730469 19.65625 44.4375 19.65625 L 15.5 19.65625 C 15.207031 19.65625 14.957031 19.863281 14.90625 20.152344 C 14.917969 20.28125 11.253906 40.648438 11.28125 40.757812 C 11.28125 40.757812 11.28125 43.167969 11.28125 43.167969 C 11.28125 43.5 11.550781 43.769531 11.882812 43.769531 L 14.898438 43.769531 L 14.898438 50.402344 L 13.691406 50.402344 C 12.902344 50.414062 12.898438 51.59375 13.691406 51.609375 C 14.707031 51.609375 16.882812 51.609375 17.910156 51.609375 C 17.910156 51.609375 19.71875 51.609375 19.71875 51.609375 C 20.511719 51.59375 20.515625 50.414062 19.71875 50.402344 C 19.71875 50.402344 18.515625 50.402344 18.515625 50.402344 L 18.515625 43.769531 L 22.09375 43.769531 C 22.644531 42.335938 23.570312 41.089844 24.757812 40.152344 L 12.601562 40.152344 L 16.007812 20.859375 L 43.933594 20.859375 L 47.339844 40.152344 L 35.179688 40.152344 C 36.367188 41.089844 37.296875 42.335938 37.847656 43.769531 L 41.425781 43.769531 L 41.425781 50.402344 L 40.21875 50.402344 C 39.429688 50.414062 39.425781 51.59375 40.21875 51.609375 C 41.234375 51.609375 43.410156 51.609375 44.441406 51.609375 C 44.441406 51.609375 46.25 51.609375 46.25 51.609375 C 47.039062 51.59375 47.042969 50.414062 46.25 50.402344 C 46.25 50.402344 45.042969 50.402344 45.042969 50.402344 L 45.042969 43.769531 L 48.058594 43.769531 C 48.390625 43.769531 48.660156 43.5 48.660156 43.167969 L 48.660156 40.757812 C 48.660156 40.734375 48.648438 40.71875 48.648438 40.699219 Z M 48.648438 40.699219 "/></g><path style=" stroke:none;fill-rule:nonzero;fill:#ffa726;fill-opacity:1;" d="M 29.96875 55.828125 C 24.984375 55.828125 20.925781 51.773438 20.925781 46.785156 C 21.421875 34.789062 38.519531 34.792969 39.011719 46.785156 C 39.011719 51.773438 34.957031 55.828125 29.96875 55.828125 Z M 29.96875 38.949219 C 25.648438 38.949219 22.132812 42.464844 22.132812 46.785156 C 22.5625 57.183594 37.378906 57.179688 37.808594 46.785156 C 37.808594 42.464844 34.292969 38.949219 29.96875 38.949219 Z M 29.96875 38.949219 "/><path style=" stroke:none;fill-rule:nonzero;fill:#ffa726;fill-opacity:1;" d="M 28.605469 41.71875 L 26.730469 45.9375 C 26.550781 46.335938 26.84375 46.785156 27.28125 46.785156 L 29.367188 46.785156 L 28.160156 52.210938 L 33.445312 45.34375 C 33.75 44.949219 33.464844 44.375 32.964844 44.375 L 31.175781 44.375 L 32.4375 42.273438 C 32.675781 41.871094 32.386719 41.359375 31.917969 41.359375 L 29.15625 41.359375 C 28.917969 41.359375 28.703125 41.5 28.605469 41.71875 Z M 28.605469 41.71875 "/></g></svg>