<svg xmlns="http://www.w3.org/2000/svg" xmlns:xlink="http://www.w3.org/1999/xlink" width="80" zoomAndPan="magnify" viewBox="0 0 60 67.92" height="80" preserveAspectRatio="xMidYMid meet" version="1.2"><defs><clipPath id="d4ca2bc897"><path d="M 41 20 L 48.726562 20 L 48.726562 25 L 41 25 Z M 41 20 "/></clipPath><clipPath id="311b4526d3"><path d="M 25 12.078125 L 47 12.078125 L 47 44 L 25 44 Z M 25 12.078125 "/></clipPath><clipPath id="05a5b47c33"><path d="M 11.273438 35 L 28 35 L 28 44 L 11.273438 44 Z M 11.273438 35 "/></clipPath><clipPath id="1a15912c5b"><path d="M 11.273438 43 L 27 43 L 27 47 L 11.273438 47 Z M 11.273438 43 "/></clipPath></defs><g id="93a63c18b4"><path style=" stroke:none;fill-rule:nonzero;fill:#ffa726;fill-opacity:1;" d="M 28.226562 24.816406 L 30.417969 24.816406 C 30.652344 24.816406 30.84375 24.625 30.84375 24.390625 C 30.84375 24.15625 30.652344 23.964844 30.417969 23.964844 L 28.40625 23.964844 L 25.433594 20.996094 L 30.417969 20.996094 C 30.652344 20.996094 30.84375 20.804688 30.84375 20.570312 C 30.84375 20.335938 30.652344 20.144531 30.417969 20.144531 L 24.40625 20.144531 C 24.03125 20.144531 23.839844 20.601562 24.105469 20.871094 L 27.925781 24.691406 C 28.007812 24.773438 28.117188 24.816406 28.226562 24.816406 Z M 28.226562 24.816406 "/><g clip-rule="nonzero" clip-path="url(#d4ca2bc897)"><path style=" stroke:none;fill-rule:nonzero;fill:#ffa726;fill-opacity:1;" d="M 48.082031 20.144531 L 42.070312 20.144531 C 41.835938 20.144531 41.648438 20.335938 41.648438 20.570312 C 41.648438 20.804688 41.835938 20.996094 42.070312 20.996094 L 47.058594 20.996094 L 44.085938 23.964844 L 42.070312 23.964844 C 41.835938 23.964844 41.648438 24.15625 41.648438 24.390625 C 41.648438 24.625 41.835938 24.816406 42.070312 24.816406 L 44.261719 24.816406 C 44.375 24.816406 44.484375 24.773438 44.5625 24.691406 L 48.382812 20.871094 C 48.652344 20.601562 48.460938 20.144531 48.082031 20.144531 Z M 48.082031 20.144531 "/></g><g clip-rule="nonzero" clip-path="url(#311b4526d3)"><path style=" stroke:none;fill-rule:nonzero;fill:#ffa726;fill-opacity:1;" d="M 46.332031 12.0625 C 39.03125 12.0625 33.6875 12.0625 26.15625 12.0625 C 25.691406 12.0625 25.453125 12.628906 25.785156 12.960938 L 29.070312 16.242188 C 29.386719 16.5625 29.804688 16.734375 30.253906 16.734375 L 30.335938 16.734375 C 30.570312 16.734375 30.761719 16.542969 30.761719 16.308594 C 30.761719 16.074219 30.570312 15.882812 30.335938 15.882812 L 30.253906 15.882812 C 30.035156 15.882812 29.828125 15.800781 29.671875 15.644531 L 26.941406 12.914062 L 32.714844 12.914062 C 32.710938 12.972656 30.601562 42.945312 30.601562 42.886719 C 30.585938 43.25 31.058594 43.464844 31.320312 43.210938 L 40.476562 34.316406 L 41.085938 42.9375 C 41.101562 43.160156 41.285156 43.332031 41.507812 43.332031 C 41.519531 43.332031 41.527344 43.332031 41.539062 43.332031 C 41.773438 43.3125 41.949219 43.109375 41.933594 42.875 L 39.820312 12.914062 L 45.550781 12.914062 L 42.820312 15.644531 C 42.53125 15.929688 42.210938 15.875 42.15625 15.882812 C 41.921875 15.882812 41.730469 16.074219 41.730469 16.308594 C 41.730469 16.542969 41.921875 16.734375 42.15625 16.734375 C 42.210938 16.722656 42.859375 16.804688 43.421875 16.242188 L 46.703125 12.960938 C 47.035156 12.632812 46.804688 12.0625 46.332031 12.0625 Z M 33.015625 20.855469 L 39.097656 14.773438 L 40.035156 28.050781 L 33.074219 21.09375 C 33.050781 21.070312 33.023438 21.054688 32.996094 21.039062 L 33.007812 20.859375 C 33.011719 20.859375 33.015625 20.855469 33.015625 20.855469 Z M 32.917969 22.136719 L 40.105469 29.328125 C 40.113281 29.332031 40.121094 29.332031 40.125 29.339844 L 40.296875 31.765625 L 32.769531 24.238281 Z M 40.371094 33.230469 L 31.527344 41.824219 L 32.691406 25.359375 L 40.386719 33.058594 L 40.398438 33.214844 C 40.390625 33.222656 40.378906 33.222656 40.371094 33.230469 Z M 39.023438 13.703125 C 38.96875 13.722656 38.917969 13.753906 38.871094 13.796875 L 33.097656 19.570312 L 33.566406 12.914062 C 33.75 12.914062 39.023438 12.914062 38.964844 12.914062 Z M 39.023438 13.703125 "/></g><path style=" stroke:none;fill-rule:nonzero;fill:#ffa726;fill-opacity:1;" d="M 44.824219 27.140625 L 44.015625 27.140625 L 44.015625 25.761719 C 44.015625 25.527344 43.824219 25.335938 43.589844 25.335938 C 43.355469 25.335938 43.164062 25.527344 43.164062 25.761719 L 43.164062 27.140625 L 42.355469 27.140625 C 42.117188 27.140625 41.929688 27.328125 41.929688 27.566406 C 41.929688 27.800781 42.117188 27.988281 42.355469 27.988281 L 44.824219 27.988281 C 45.058594 27.988281 45.25 27.800781 45.25 27.566406 C 45.25 27.328125 45.058594 27.140625 44.824219 27.140625 Z M 44.824219 27.140625 "/><path style=" stroke:none;fill-rule:nonzero;fill:#ffa726;fill-opacity:1;" d="M 30.800781 27.566406 C 30.800781 27.328125 30.613281 27.140625 30.378906 27.140625 L 29.566406 27.140625 L 29.566406 25.761719 C 29.566406 25.527344 29.378906 25.335938 29.140625 25.335938 C 28.90625 25.335938 28.71875 25.527344 28.71875 25.761719 L 28.71875 27.140625 L 27.90625 27.140625 C 27.671875 27.140625 27.480469 27.328125 27.480469 27.566406 C 27.480469 27.800781 27.671875 27.988281 27.90625 27.988281 L 30.378906 27.988281 C 30.613281 27.988281 30.800781 27.800781 30.800781 27.566406 Z M 30.800781 27.566406 "/><path style=" stroke:none;fill-rule:nonzero;fill:#ffa726;fill-opacity:1;" d="M 42.425781 17.039062 C 42.191406 17.039062 42 17.230469 42 17.464844 L 42 18.011719 L 41.757812 18.011719 C 41.523438 18.011719 41.332031 18.203125 41.332031 18.4375 C 41.332031 18.671875 41.523438 18.863281 41.757812 18.863281 L 43.089844 18.863281 C 43.328125 18.863281 43.515625 18.671875 43.515625 18.4375 C 43.515625 18.203125 43.328125 18.011719 43.089844 18.011719 L 42.851562 18.011719 L 42.851562 17.464844 C 42.851562 17.230469 42.660156 17.039062 42.425781 17.039062 Z M 42.425781 17.039062 "/><path style=" stroke:none;fill-rule:nonzero;fill:#ffa726;fill-opacity:1;" d="M 30.304688 17.058594 C 30.070312 17.058594 29.882812 17.246094 29.882812 17.480469 L 29.882812 18.09375 L 29.59375 18.09375 C 29.359375 18.09375 29.171875 18.285156 29.171875 18.519531 C 29.171875 18.753906 29.359375 18.945312 29.59375 18.945312 L 31.015625 18.945312 C 31.25 18.945312 31.441406 18.753906 31.441406 18.519531 C 31.441406 18.285156 31.25 18.09375 31.015625 18.09375 L 30.730469 18.09375 L 30.730469 17.480469 C 30.730469 17.246094 30.539062 17.058594 30.304688 17.058594 Z M 30.304688 17.058594 "/><path style=" stroke:none;fill-rule:nonzero;fill:#ffa726;fill-opacity:1;" d="M 42.957031 43.933594 L 28.929688 43.933594 C 28.382812 43.933594 27.9375 44.378906 27.9375 44.929688 L 27.9375 46.632812 C 27.9375 46.867188 28.128906 47.058594 28.363281 47.058594 L 43.527344 47.058594 C 43.761719 47.058594 43.953125 46.867188 43.953125 46.632812 L 43.953125 44.929688 C 43.953125 44.378906 43.507812 43.933594 42.957031 43.933594 Z M 43.101562 46.207031 L 28.785156 46.207031 L 28.785156 44.929688 C 28.785156 44.847656 28.851562 44.785156 28.929688 44.785156 L 42.957031 44.785156 C 43.039062 44.785156 43.101562 44.847656 43.101562 44.929688 Z M 43.101562 46.207031 "/><path style=" stroke:none;fill-rule:nonzero;fill:#ffa726;fill-opacity:1;" d="M 24.828125 46.316406 C 24.59375 46.316406 24.402344 46.503906 24.402344 46.742188 L 24.402344 46.957031 L 23.574219 46.957031 L 23.125 46.511719 C 22.960938 46.347656 22.691406 46.347656 22.523438 46.511719 C 22.359375 46.679688 22.359375 46.945312 22.523438 47.113281 L 23.019531 47.605469 C 23.148438 47.734375 23.324219 47.808594 23.507812 47.808594 L 24.558594 47.808594 C 24.941406 47.808594 25.25 47.496094 25.25 47.113281 L 25.25 46.742188 C 25.25 46.503906 25.0625 46.316406 24.828125 46.316406 Z M 24.828125 46.316406 "/><path style=" stroke:none;fill-rule:nonzero;fill:#ffa726;fill-opacity:1;" d="M 15.164062 42.320312 L 15.164062 38.300781 C 15.164062 38.066406 14.976562 37.875 14.738281 37.875 C 14.503906 37.875 14.316406 38.066406 14.316406 38.300781 L 14.316406 42.320312 C 14.316406 42.554688 14.503906 42.746094 14.738281 42.746094 C 14.976562 42.746094 15.164062 42.554688 15.164062 42.320312 Z M 15.164062 42.320312 "/><path style=" stroke:none;fill-rule:nonzero;fill:#ffa726;fill-opacity:1;" d="M 17.015625 42.320312 L 17.015625 38.300781 C 17.015625 38.066406 16.824219 37.875 16.589844 37.875 C 16.355469 37.875 16.164062 38.066406 16.164062 38.300781 L 16.164062 42.320312 C 16.164062 42.554688 16.355469 42.746094 16.589844 42.746094 C 16.824219 42.746094 17.015625 42.554688 17.015625 42.320312 Z M 17.015625 42.320312 "/><path style=" stroke:none;fill-rule:nonzero;fill:#ffa726;fill-opacity:1;" d="M 18.863281 42.320312 L 18.863281 38.300781 C 18.863281 38.066406 18.671875 37.875 18.4375 37.875 C 18.203125 37.875 18.011719 38.066406 18.011719 38.300781 L 18.011719 42.320312 C 18.011719 42.554688 18.203125 42.746094 18.4375 42.746094 C 18.671875 42.746094 18.863281 42.554688 18.863281 42.320312 Z M 18.863281 42.320312 "/><path style=" stroke:none;fill-rule:nonzero;fill:#ffa726;fill-opacity:1;" d="M 20.710938 42.320312 L 20.710938 38.300781 C 20.710938 38.066406 20.523438 37.875 20.289062 37.875 C 20.054688 37.875 19.863281 38.066406 19.863281 38.300781 L 19.863281 42.320312 C 19.863281 42.554688 20.054688 42.746094 20.289062 42.746094 C 20.523438 42.746094 20.710938 42.554688 20.710938 42.320312 Z M 20.710938 42.320312 "/><path style=" stroke:none;fill-rule:nonzero;fill:#ffa726;fill-opacity:1;" d="M 22.5625 42.320312 L 22.5625 38.300781 C 22.5625 38.066406 22.371094 37.875 22.136719 37.875 C 21.902344 37.875 21.710938 38.066406 21.710938 38.300781 L 21.710938 42.320312 C 21.710938 42.554688 21.902344 42.746094 22.136719 42.746094 C 22.371094 42.746094 22.5625 42.554688 22.5625 42.320312 Z M 22.5625 42.320312 "/><path style=" stroke:none;fill-rule:nonzero;fill:#ffa726;fill-opacity:1;" d="M 24.410156 42.320312 L 24.410156 38.300781 C 24.410156 38.066406 24.21875 37.875 23.984375 37.875 C 23.75 37.875 23.5625 38.066406 23.5625 38.300781 L 23.5625 42.320312 C 23.5625 42.554688 23.75 42.746094 23.984375 42.746094 C 24.21875 42.746094 24.410156 42.554688 24.410156 42.320312 Z M 24.410156 42.320312 "/><g clip-rule="nonzero" clip-path="url(#05a5b47c33)"><path style=" stroke:none;fill-rule:nonzero;fill:#ffa726;fill-opacity:1;" d="M 26.589844 35.84375 C 19.929688 35.84375 18.785156 35.84375 11.929688 35.84375 C 11.695312 35.84375 11.503906 36.035156 11.503906 36.269531 C 11.503906 36.503906 11.695312 36.695312 11.929688 36.695312 L 12.441406 36.695312 L 12.441406 42.90625 C 12.441406 43.140625 12.628906 43.332031 12.867188 43.332031 C 13.101562 43.332031 13.289062 43.140625 13.289062 42.90625 L 13.289062 36.695312 L 25.382812 36.695312 L 25.382812 42.90625 C 25.382812 43.140625 25.574219 43.332031 25.808594 43.332031 C 26.042969 43.332031 26.234375 43.140625 26.234375 42.90625 L 26.234375 36.695312 L 26.589844 36.695312 C 26.824219 36.695312 27.015625 36.503906 27.015625 36.269531 C 27.015625 36.035156 26.824219 35.84375 26.589844 35.84375 Z M 26.589844 35.84375 "/></g><g clip-rule="nonzero" clip-path="url(#1a15912c5b)"><path style=" stroke:none;fill-rule:nonzero;fill:#ffa726;fill-opacity:1;" d="M 25.75 43.792969 L 12.515625 43.792969 C 11.886719 43.792969 11.378906 44.304688 11.378906 44.933594 C 11.378906 45.5625 11.886719 46.074219 12.515625 46.074219 L 25.75 46.074219 C 26.378906 46.074219 26.890625 45.5625 26.890625 44.933594 C 26.890625 44.304688 26.378906 43.792969 25.75 43.792969 Z M 25.75 45.222656 L 12.515625 45.222656 C 12.359375 45.222656 12.226562 45.089844 12.226562 44.933594 C 12.226562 44.777344 12.359375 44.644531 12.515625 44.644531 L 25.75 44.644531 C 25.90625 44.644531 26.039062 44.777344 26.039062 44.933594 C 26.039062 45.089844 25.90625 45.222656 25.75 45.222656 Z M 25.75 45.222656 "/></g><path style=" stroke:none;fill-rule:nonzero;fill:#ffa726;fill-opacity:1;" d="M 23.59375 35.535156 C 23.773438 35.535156 23.9375 35.417969 23.996094 35.238281 L 24.402344 33.988281 C 24.996094 34.167969 25.015625 34.195312 25.128906 34.195312 C 25.308594 34.195312 25.476562 34.082031 25.535156 33.898438 C 25.605469 33.675781 25.480469 33.4375 25.257812 33.367188 L 23.242188 32.730469 C 23.015625 32.660156 22.777344 32.785156 22.707031 33.007812 C 22.636719 33.234375 22.761719 33.472656 22.984375 33.542969 L 23.59375 33.734375 L 23.1875 34.976562 C 23.097656 35.253906 23.304688 35.535156 23.59375 35.535156 Z M 23.59375 35.535156 "/><path style=" stroke:none;fill-rule:nonzero;fill:#ffa726;fill-opacity:1;" d="M 25.972656 32.503906 C 26.046875 32.277344 25.921875 32.039062 25.695312 31.96875 L 25.09375 31.777344 L 25.304688 31.132812 C 25.375 30.910156 25.253906 30.667969 25.03125 30.597656 C 24.808594 30.523438 24.566406 30.644531 24.492188 30.867188 L 24.28125 31.523438 L 23.679688 31.332031 C 23.457031 31.261719 23.21875 31.386719 23.148438 31.609375 C 23.078125 31.835938 23.199219 32.074219 23.425781 32.144531 C 25.527344 32.800781 25.445312 32.800781 25.570312 32.800781 C 25.75 32.800781 25.917969 32.683594 25.972656 32.503906 Z M 25.972656 32.503906 "/><path style=" stroke:none;fill-rule:nonzero;fill:#ffa726;fill-opacity:1;" d="M 20.714844 33.105469 C 20.949219 33.105469 21.140625 32.917969 21.140625 32.683594 C 21.144531 32.449219 20.957031 32.257812 20.71875 32.253906 C 20.59375 32.253906 20.75 32.257812 18.601562 32.238281 C 18.371094 32.238281 18.179688 32.425781 18.175781 32.660156 C 18.175781 32.894531 18.363281 33.085938 18.597656 33.089844 L 19.226562 33.09375 L 19.226562 34.40625 C 19.226562 34.644531 19.417969 34.832031 19.652344 34.832031 C 19.886719 34.832031 20.078125 34.644531 20.078125 34.40625 L 20.078125 33.101562 C 20.128906 33.101562 19.867188 33.097656 20.714844 33.105469 Z M 20.714844 33.105469 "/><path style=" stroke:none;fill-rule:nonzero;fill:#ffa726;fill-opacity:1;" d="M 20.730469 30.828125 L 20.085938 30.820312 L 20.085938 30.019531 C 20.085938 29.785156 19.894531 29.59375 19.660156 29.59375 C 19.425781 29.59375 19.234375 29.785156 19.234375 30.019531 L 19.234375 30.816406 L 18.617188 30.808594 C 18.617188 30.808594 18.613281 30.808594 18.613281 30.808594 C 18.378906 30.808594 18.191406 30.996094 18.1875 31.230469 C 18.1875 31.464844 18.375 31.65625 18.609375 31.660156 C 18.734375 31.660156 18.578125 31.660156 20.726562 31.675781 C 20.960938 31.675781 21.148438 31.488281 21.152344 31.257812 C 21.152344 31.019531 20.964844 30.828125 20.730469 30.828125 Z M 20.730469 30.828125 "/><path style=" stroke:none;fill-rule:nonzero;fill:#ffa726;fill-opacity:1;" d="M 15.433594 46.511719 L 14.988281 46.957031 L 14.160156 46.957031 L 14.160156 46.742188 C 14.160156 46.503906 13.96875 46.316406 13.734375 46.316406 C 13.5 46.316406 13.308594 46.503906 13.308594 46.742188 L 13.308594 47.113281 C 13.308594 47.496094 13.621094 47.808594 14.003906 47.808594 L 15.050781 47.808594 C 15.234375 47.808594 15.414062 47.734375 15.542969 47.605469 L 16.035156 47.113281 C 16.199219 46.945312 16.199219 46.679688 16.035156 46.511719 C 15.867188 46.347656 15.597656 46.347656 15.433594 46.511719 Z M 15.433594 46.511719 "/><path style=" stroke:none;fill-rule:nonzero;fill:#ffa726;fill-opacity:1;" d="M 28.660156 18.519531 C 28.660156 18.285156 28.46875 18.09375 28.234375 18.09375 L 16.027344 18.09375 C 14.746094 18.09375 13.703125 19.140625 13.703125 20.421875 L 13.703125 28.121094 C 13.703125 28.355469 13.894531 28.542969 14.128906 28.542969 C 14.363281 28.542969 14.550781 28.355469 14.550781 28.121094 L 14.550781 20.421875 C 14.550781 19.609375 15.214844 18.945312 16.027344 18.945312 L 28.234375 18.945312 C 28.46875 18.945312 28.660156 18.753906 28.660156 18.519531 Z M 28.660156 18.519531 "/><path style=" stroke:none;fill-rule:nonzero;fill:#ffa726;fill-opacity:1;" d="M 16.746094 33.007812 C 16.675781 32.785156 16.4375 32.660156 16.214844 32.730469 L 14.195312 33.367188 C 13.972656 33.4375 13.847656 33.675781 13.917969 33.898438 C 13.976562 34.082031 14.144531 34.195312 14.324219 34.195312 C 14.441406 34.195312 14.480469 34.160156 15.050781 33.988281 L 15.457031 35.238281 C 15.53125 35.46875 15.777344 35.585938 15.992188 35.511719 C 16.214844 35.441406 16.339844 35.199219 16.265625 34.976562 L 15.863281 33.734375 L 16.46875 33.542969 C 16.691406 33.472656 16.816406 33.234375 16.746094 33.007812 Z M 16.746094 33.007812 "/><path style=" stroke:none;fill-rule:nonzero;fill:#ffa726;fill-opacity:1;" d="M 13.480469 32.503906 C 13.535156 32.683594 13.703125 32.800781 13.882812 32.800781 C 14.007812 32.800781 13.910156 32.804688 16.027344 32.144531 C 16.253906 32.074219 16.378906 31.835938 16.304688 31.609375 C 16.234375 31.386719 15.996094 31.261719 15.773438 31.332031 L 15.171875 31.523438 L 14.960938 30.867188 C 14.886719 30.644531 14.648438 30.523438 14.425781 30.597656 C 14.199219 30.667969 14.078125 30.910156 14.152344 31.132812 L 14.359375 31.777344 L 13.757812 31.96875 C 13.53125 32.039062 13.410156 32.277344 13.480469 32.503906 Z M 13.480469 32.503906 "/></g></svg>